<svg width="15" height="15" viewBox="0 0 30 28" fill="none" xmlns="http://www.w3.org/2000/svg">
<path d="M19.7416 17.6082H6.97298C6.71624 17.6082 6.47001 17.5164 6.28846 17.3528C6.10692 17.1893 6.00492 16.9675 6.00492 16.7362V4.85917C6.00495 4.29555 5.75773 3.75475 5.31712 3.35459C4.87651 2.95442 4.27821 2.7273 3.65255 2.7227H1.16465C0.907905 2.7227 0.661676 2.63082 0.480131 2.46728C0.298585 2.30375 0.196594 2.08194 0.196594 1.85067C0.196594 1.61939 0.298585 1.39759 0.480131 1.23405C0.661676 1.07051 0.907905 0.978638 1.16465 0.978638H3.65255C4.7917 0.98325 5.88245 1.39413 6.68615 2.12137C7.48984 2.84861 7.94105 3.833 7.94103 4.85917V15.8642H19.7416C20.3836 15.8634 21.0122 15.6992 21.5551 15.3907C22.098 15.0821 22.5332 14.6417 22.8104 14.1201L26.6826 7.07412H10.9807C10.724 7.07412 10.4778 6.98225 10.2962 6.81871C10.1147 6.65517 10.0127 6.43337 10.0127 6.20209C10.0127 5.97081 10.1147 5.74901 10.2962 5.58547C10.4778 5.42194 10.724 5.33006 10.9807 5.33006H28.2702C28.4352 5.33051 28.5974 5.36895 28.7412 5.44174C28.8851 5.51452 29.006 5.61923 29.0923 5.74592C29.1786 5.87261 29.2276 6.01707 29.2345 6.16559C29.2414 6.31411 29.206 6.46176 29.1318 6.5945L24.5335 14.9311C24.0922 15.736 23.4093 16.4135 22.5624 16.8867C21.7154 17.3598 20.7382 17.6098 19.7416 17.6082Z" fill="#FEFEFE"/>
<path d="M22.4623 21.0353H10.8456C10.2136 21.0422 9.58627 20.9362 8.99998 20.7233C8.41369 20.5105 7.88006 20.1951 7.42995 19.7953C6.97985 19.3955 6.62219 18.9193 6.37766 18.3942C6.13314 17.8691 6.0066 17.3056 6.00537 16.7362C6.00537 16.5049 6.10736 16.2831 6.28891 16.1196C6.47045 15.956 6.71668 15.8642 6.97343 15.8642C7.23017 15.8642 7.4764 15.956 7.65794 16.1196C7.83949 16.2831 7.94148 16.5049 7.94148 16.7362C7.94269 17.0766 8.01913 17.4134 8.16635 17.7269C8.31357 18.0403 8.52862 18.3243 8.79896 18.5621C9.06929 18.8 9.3895 18.9869 9.7409 19.1121C10.0923 19.2373 10.4678 19.2982 10.8456 19.2912H22.4623C22.719 19.2912 22.9653 19.3831 23.1468 19.5466C23.3284 19.7102 23.4304 19.932 23.4304 20.1633C23.4304 20.3945 23.3284 20.6163 23.1468 20.7799C22.9653 20.9434 22.719 21.0353 22.4623 21.0353Z" fill="#FEFEFE"/>
<path d="M8.90954 27.1395C8.33515 27.1395 7.77366 26.9861 7.29607 26.6986C6.81848 26.4111 6.44625 26.0026 6.22644 25.5245C6.00663 25.0465 5.94912 24.5205 6.06118 24.013C6.17323 23.5056 6.44983 23.0394 6.85598 22.6736C7.26214 22.3077 7.77961 22.0585 8.34296 21.9576C8.90632 21.8566 9.49025 21.9085 10.0209 22.1065C10.5516 22.3045 11.0051 22.6398 11.3243 23.07C11.6434 23.5002 11.8137 24.006 11.8137 24.5234C11.8137 25.2172 11.5077 25.8826 10.9631 26.3733C10.4185 26.8639 9.67977 27.1395 8.90954 27.1395ZM8.90954 23.6514C8.71807 23.6514 8.53091 23.7025 8.37171 23.7983C8.21252 23.8942 8.08844 24.0304 8.01517 24.1897C7.9419 24.349 7.92273 24.5244 7.96008 24.6935C7.99744 24.8627 8.08963 25.0181 8.22502 25.14C8.3604 25.262 8.53289 25.345 8.72068 25.3787C8.90846 25.4123 9.10311 25.3951 9.28 25.3291C9.45688 25.2631 9.60807 25.1513 9.71445 25.0079C9.82082 24.8645 9.87759 24.6959 9.87759 24.5234C9.87759 24.2921 9.7756 24.0703 9.59406 23.9068C9.41251 23.7433 9.16628 23.6514 8.90954 23.6514Z" fill="#FEFEFE"/>
<path d="M19.5582 27.1395C18.9838 27.1395 18.4223 26.9861 17.9447 26.6986C17.4671 26.4111 17.0949 26.0026 16.8751 25.5245C16.6553 25.0465 16.5977 24.5205 16.7098 24.013C16.8219 23.5056 17.0984 23.0394 17.5046 22.6736C17.9108 22.3077 18.4282 22.0585 18.9916 21.9576C19.5549 21.8566 20.1389 21.9085 20.6695 22.1065C21.2002 22.3045 21.6538 22.6398 21.9729 23.07C22.292 23.5002 22.4623 24.006 22.4623 24.5234C22.4623 25.2172 22.1563 25.8826 21.6117 26.3733C21.0671 26.8639 20.3284 27.1395 19.5582 27.1395ZM19.5582 23.6514C19.3667 23.6514 19.1795 23.7025 19.0203 23.7983C18.8611 23.8942 18.7371 24.0304 18.6638 24.1897C18.5905 24.349 18.5714 24.5244 18.6087 24.6935C18.6461 24.8627 18.7383 25.0181 18.8736 25.14C19.009 25.262 19.1815 25.345 19.3693 25.3787C19.5571 25.4123 19.7517 25.3951 19.9286 25.3291C20.1055 25.2631 20.2567 25.1513 20.3631 25.0079C20.4694 24.8645 20.5262 24.6959 20.5262 24.5234C20.5262 24.2921 20.4242 24.0703 20.2427 23.9068C20.0611 23.7433 19.8149 23.6514 19.5582 23.6514Z" fill="#FEFEFE"/>
</svg>
