<svg width="10" height="10" viewBox="0 0 16 16" fill="none" xmlns="http://www.w3.org/2000/svg">
<path d="M2.29618 0.540588H13.9822C15.092 0.540588 16 1.34547 16 2.51722V13.9651C16 15.1369 15.092 15.9417 13.9822 15.9417H2.29618C1.18605 15.9417 0.278198 15.1369 0.278198 13.9651V2.51722C0.278198 1.34547 1.18605 0.540588 2.29618 0.540588ZM11.731 2.25172C11.3416 2.25172 11.0235 2.56356 11.0235 2.94513V4.60471C11.0235 4.98612 11.3416 5.29811 11.731 5.29811H13.508C13.8973 5.29811 14.2158 4.98612 14.2158 4.60471V2.94513C14.2158 2.56356 13.8973 2.25172 13.508 2.25172H11.731ZM14.2232 7.05368H12.8395C12.9704 7.47241 13.0413 7.91597 13.0413 8.37487C13.0413 10.9366 10.853 13.0132 8.15414 13.0132C5.45543 13.0132 3.26747 10.9366 3.26747 8.37487C3.26747 7.91565 3.33818 7.47226 3.46925 7.05368H2.0253V13.5593C2.0253 13.896 2.30651 14.1716 2.65034 14.1716H13.5985C13.9424 14.1716 14.2236 13.8962 14.2236 13.5593V7.05368H14.2232ZM8.15398 5.21067C6.41026 5.21067 4.9965 6.55241 4.9965 8.20772C4.9965 9.86304 6.41026 11.2048 8.15398 11.2048C9.89785 11.2048 11.3118 9.86304 11.3118 8.20772C11.3118 6.55241 9.89801 5.21067 8.15398 5.21067Z" fill="#263621"/>
</svg>
