<svg width="12" height="10" viewBox="0 0 17 15" fill="none" xmlns="http://www.w3.org/2000/svg">
<path d="M16.9801 2.62696C16.9558 2.59827 16.9156 2.58853 16.8813 2.60418C16.3737 2.82938 15.8397 2.99128 15.2896 3.08693C15.8736 2.64766 16.3087 2.03936 16.5318 1.34185C16.5426 1.30846 16.5315 1.27194 16.5042 1.2502C16.4767 1.22846 16.4386 1.22568 16.4085 1.24359C15.7508 1.63365 15.0385 1.90858 14.2904 2.06109C13.6275 1.37315 12.7018 0.979614 11.7438 0.979614C9.79547 0.979614 8.21055 2.56453 8.21055 4.51273C8.21055 4.74836 8.23333 4.98173 8.27854 5.20832C5.57997 5.04173 3.05669 3.74618 1.341 1.64182C1.32343 1.62026 1.29683 1.60826 1.269 1.61104C1.24135 1.61313 1.21666 1.62878 1.20275 1.6526C0.88973 2.18961 0.724352 2.80399 0.724352 3.42899C0.724352 4.51221 1.21649 5.525 2.05451 6.19329C1.62306 6.14147 1.20171 6.00565 0.821735 5.79471C0.796172 5.78028 0.764348 5.78045 0.738785 5.79524C0.713222 5.80984 0.697049 5.83697 0.696354 5.86653L0.696006 5.91175C0.696006 7.46745 1.72114 8.83343 3.17964 9.28696C2.79549 9.34887 2.39692 9.3447 2.00512 9.26992C1.97625 9.26453 1.94599 9.27444 1.92617 9.2967C1.90652 9.31896 1.89991 9.35009 1.90895 9.37826C2.34631 10.7434 3.56152 11.7007 4.97602 11.82C3.79611 12.6844 2.40144 13.1399 0.927814 13.1399C0.656357 13.1399 0.382987 13.1237 0.115182 13.0922C0.0769242 13.0879 0.0390141 13.1107 0.0257978 13.1474C0.0125814 13.1844 0.0266673 13.2258 0.0597082 13.2468C1.65437 14.2695 3.49822 14.8098 5.39216 14.8098C11.5873 14.8098 15.2893 9.77753 15.2893 4.91252C15.2893 4.77706 15.2867 4.64228 15.2813 4.50786C15.9496 4.01903 16.5233 3.42064 16.9859 2.728C17.0065 2.69704 17.0043 2.65583 16.9801 2.62696Z" fill="#263621"/>
</svg>
